<svg width="16" height="14" viewBox="0 0 16 14" fill="none" xmlns="http://www.w3.org/2000/svg">
<path fill-rule="evenodd" clip-rule="evenodd" d="M15 2H1V13H15V2ZM0 1V14H16V1H0Z" fill="#777777"/>
<path fill-rule="evenodd" clip-rule="evenodd" d="M15 5H1V7H15V5ZM0 4V8H16V4H0Z" fill="#777777"/>
<path fill-rule="evenodd" clip-rule="evenodd" d="M6 13.375L6 4.625H4L4 13.375H6ZM7 4L3 4L3 14H7L7 4Z" fill="#777777"/>
<path fill-rule="evenodd" clip-rule="evenodd" d="M12 13.375V4.625H10V13.375H12ZM13 4L9 4V14H13V4Z" fill="#777777"/>
<path fill-rule="evenodd" clip-rule="evenodd" d="M15 8H1V10H15V8ZM0 7V11H16V7H0Z" fill="#777777"/>
<path d="M3 0H4V3H3V0Z" fill="#777777"/>
<path d="M12 0H13V3H12V0Z" fill="#777777"/>
</svg>
