<?xml version="1.0" encoding="iso-8859-1"?>
<!-- Generator: Adobe Illustrator 19.0.0, SVG Export Plug-In . SVG Version: 6.00 Build 0)  -->
<svg version="1.1" id="Layer_1" xmlns="http://www.w3.org/2000/svg" xmlns:xlink="http://www.w3.org/1999/xlink" x="0px" y="0px"
	 viewBox="0 0 512 512" style="enable-background:new 0 0 512 512;" xml:space="preserve">
<rect x="10.199" y="161.279" style="fill:#E8E8E8;" width="425.807" height="330.913"/>
<polygon style="fill:#F07057;" points="361.794,19.737 86.844,19.737 10.199,161.283 436.007,161.283 "/>
<rect x="164.707" y="321.876" style="fill:#84B3D2;" width="116.791" height="170.327"/>
<rect x="370.425" y="382.204" style="fill:#F07057;" width="131.376" height="110.182"/>
<path d="M48.296,342.229c-5.633,0-10.199,4.567-10.199,10.199v3.58c0,5.632,4.566,10.199,10.199,10.199s10.199-4.567,10.199-10.199
	v-3.58C58.495,346.795,53.928,342.229,48.296,342.229z"/>
<path d="M48.296,376.241c-5.633,0-10.199,4.567-10.199,10.199v70.711c0,5.632,4.566,10.199,10.199,10.199
	s10.199-4.567,10.199-10.199V386.44C58.495,380.807,53.928,376.241,48.296,376.241z"/>
<path d="M501.801,372.005h-7.812v-25.823c0-28.468-20.668-52.185-47.783-56.976V161.283c0-1.704-0.424-3.309-1.164-4.721
	c-0.003-0.005,0-0.01-0.003-0.015l-0.054-0.103c-0.006-0.011-0.012-0.022-0.018-0.035L370.828,15.001
	c-1.761-3.359-5.24-5.463-9.032-5.463H86.844c-3.743,0-7.186,2.051-8.968,5.342L1.251,156.387C0.455,157.84,0,159.508,0,161.283
	v330.979c0,5.632,4.566,10.199,10.199,10.199h491.602c5.632,0,10.199-4.567,10.199-10.199V382.204
	C512,376.572,507.433,372.005,501.801,372.005z M473.591,346.182v25.823h-27.385v-61.909
	C461.982,314.515,473.591,329.014,473.591,346.182z M425.808,372.005h-27.172v-25.823c0-17.092,11.504-31.536,27.173-36.025v61.848
	H425.808z M92.92,29.937h262.706l63.517,121.146H27.321L92.92,29.937z M271.301,482.062h-96.395V332.072h96.395V482.062z
	 M378.237,372.005h-7.813c-5.632,0-10.199,4.567-10.199,10.199v99.857h-68.526V321.873c0-5.632-4.567-10.199-10.199-10.199H164.707
	c-5.633,0-10.199,4.567-10.199,10.199v160.19H20.398V171.482h405.409v117.762c-27.011,4.877-47.571,28.544-47.571,56.938v25.823
	H378.237z M491.602,482.062H380.623v-89.658h110.979V482.062z"/>
<path d="M436.113,459.151c5.632,0,10.199-4.567,10.199-10.199v-23.308c0-5.632-4.567-10.199-10.199-10.199
	c-5.632,0-10.199,4.567-10.199,10.199v23.308C425.914,454.584,430.48,459.151,436.113,459.151z"/>
<g>
</g>
<g>
</g>
<g>
</g>
<g>
</g>
<g>
</g>
<g>
</g>
<g>
</g>
<g>
</g>
<g>
</g>
<g>
</g>
<g>
</g>
<g>
</g>
<g>
</g>
<g>
</g>
<g>
</g>
</svg>
