<?xml version="1.0" encoding="iso-8859-1"?>
<!-- Generator: Adobe Illustrator 19.0.0, SVG Export Plug-In . SVG Version: 6.00 Build 0)  -->
<svg version="1.1" id="Layer_1" xmlns="http://www.w3.org/2000/svg" xmlns:xlink="http://www.w3.org/1999/xlink" x="0px" y="0px"
	 viewBox="0 0 512 512" style="enable-background:new 0 0 512 512;" xml:space="preserve">
<g>
	<rect x="28.741" y="307.912" style="fill:#F07057;" width="92.17" height="193.886"/>
	<rect x="391.086" y="144.756" style="fill:#F07057;" width="92.17" height="357.041"/>
	<rect x="209.908" y="228.45" style="fill:#F07057;" width="92.17" height="273.347"/>
</g>
<path d="M120.916,297.716H28.741c-5.633,0-10.199,4.567-10.199,10.199v193.886c0,5.632,4.566,10.199,10.199,10.199h92.175
	c5.633,0,10.199-4.567,10.199-10.199V307.915C131.115,302.283,126.549,297.716,120.916,297.716z M110.717,491.602H38.94V318.114
	h71.776V491.602z"/>
<path d="M483.259,134.557h-92.175c-5.633,0-10.199,4.567-10.199,10.199v357.044c0,5.632,4.566,10.199,10.199,10.199h92.175
	c5.633,0,10.199-4.567,10.199-10.199V144.756C493.458,139.123,488.892,134.557,483.259,134.557z M473.06,491.602h-71.776V154.955
	h71.776V491.602z"/>
<path d="M302.087,218.255h-92.175c-5.633,0-10.199,4.567-10.199,10.199v273.346c0,5.632,4.566,10.199,10.199,10.199h92.175
	c5.633,0,10.199-4.567,10.199-10.199V228.454C312.286,222.823,307.72,218.255,302.087,218.255z M291.888,491.602h-71.776V238.654
	h71.776V491.602z"/>
<path d="M453.063,328.709c5.633,0,10.199-4.567,10.199-10.199v-9.535c0-5.632-4.566-10.199-10.199-10.199
	s-10.199,4.567-10.199,10.199v9.535C442.864,324.142,447.43,328.709,453.063,328.709z"/>
<path d="M453.063,481.275c5.633,0,10.199-4.567,10.199-10.199V355.588c0-5.632-4.566-10.199-10.199-10.199
	s-10.199,4.567-10.199,10.199v115.487C442.864,476.708,447.43,481.275,453.063,481.275z"/>
<path d="M72.715,235.479c1.335,0,2.694-0.265,3.999-0.822l181.171-77.342c0.614-0.263,1.201-0.584,1.752-0.961L425.33,43.057
	l-5.865,19.672c-1.609,5.398,1.462,11.078,6.86,12.688c0.972,0.29,1.953,0.428,2.918,0.428c4.394,0,8.451-2.863,9.77-7.288
	l12.367-41.484c1.609-5.398-1.462-11.078-6.86-12.688L397.705,0.428c-5.398-1.61-11.079,1.463-12.688,6.86
	c-1.609,5.398,1.462,11.078,6.86,12.688l21.634,6.45L248.953,138.948L68.705,215.896c-5.18,2.212-7.587,8.204-5.376,13.384
	C64.984,233.155,68.752,235.479,72.715,235.479z"/>
<g>
</g>
<g>
</g>
<g>
</g>
<g>
</g>
<g>
</g>
<g>
</g>
<g>
</g>
<g>
</g>
<g>
</g>
<g>
</g>
<g>
</g>
<g>
</g>
<g>
</g>
<g>
</g>
<g>
</g>
</svg>
